# AST/ASF file generated using VICON BodyLanguage
# -----------------------------------------------
:version 1.10
:name VICON
:units
  mass 1.0
  length 0.45
  angle deg
:documentation
   .ast/.asf automatically generated from VICON data using
   VICON BodyBuilder and BodyLanguage model FoxedUp or BRILLIANT.MOD
:root
   order TX TY TZ RX RY RZ
   axis XYZ
   position 0 0 0  
   orientation 0 0 0 
:bonedata
  begin
     id 1 
     name lhipjoint
     direction 0.610259 -0.730986 0.305356 
     length 2.50941 
     axis 0 0 0  XYZ
  end
  begin
     id 2 
     name lfemur
     direction 0.34202 -0.939693 0  
     length 7.48822  
     axis 0 0 20  XYZ
    dof rx ry rz
    limits (-160.0 20.0)
           (-70.0 70.0)
           (-60.0 70.0)
  end
  begin
     id 3 
     name ltibia
     direction 0.34202 -0.939693 0   
     length 7.60141   
     axis 0 0 20   XYZ
    dof rx
    limits (-10.0 170.0)
  end
  begin
     id 4 
     name lfoot
     direction 0.0673488 -0.185039 0.980421   
     length 2.04049   
     axis -90 7.62852e-016 20   XYZ
    dof rx rz
    limits (-45.0 90.0)
           (-70.0 20.0)
  end
  begin
     id 5 
     name ltoes
     direction 1.5356e-011 -4.21729e-011 1   
     length 1.02897   
     axis -90 7.62852e-016 20   XYZ
    dof rx
    limits (-90.0 20.0)
  end
  begin
     id 6 
     name rhipjoint
     direction -0.57612 -0.754205 0.315056   
     length 2.43216  
     axis 0 0 0  XYZ 
  end
  begin
     id 7 
     name rfemur
     direction -0.34202 -0.939693 0   
     length 7.42799   
     axis 0 0 -20   XYZ
    dof rx ry rz
    limits (-160.0 20.0)
           (-70.0 70.0)
           (-70.0 60.0)
  end
  begin
     id 8 
     name rtibia
     direction -0.34202 -0.939693 0   
     length 7.69484   
     axis 0 0 -20   XYZ
    dof rx
    limits (-10.0 170.0)
 end
 begin
     id 9 
     name rfoot
     direction -0.111837 -0.30727 0.945028   
     length 2.15769  
     axis -90 -7.62852e-016 -20   XYZ
    dof rx rz
    limits (-45.0 90.0)
           (-20.0 70.0)
  end
  begin
     id 10 
     name rtoes
     direction -1.53539e-011 -4.21878e-011 1   
     length 1.07391   
     axis -90 -7.62852e-016 -20   XYZ
    dof rx
    limits (-90.0 20.0)
  end
  begin
     id 11 
     name lowerback
     direction 0.00552624 0.990109 -0.140195   
     length 2.12403   
     axis 0 0 0   XYZ
    dof rx ry rz
    limits (-20.0 45.0)
           (-30.0 30.0)
           (-30.0 30.0)
  end
  begin
     id 12 
     name upperback
     direction 0.00361898 0.999976 -0.00584723   
     length 2.13232   
     axis 0 0 0   XYZ
    dof rx ry rz
    limits (-20.0 45.0)
           (-30.0 30.0)
           (-30.0 30.0)
  end
  begin
     id 13 
     name thorax
     direction -0.000331275 0.998253 0.0590847   
     length 2.17688   
     axis 0 0 0   XYZ
    dof rx ry rz
    limits (-20.0 45.0)
           (-30.0 30.0)
           (-30.0 30.0)
  end
  begin
     id 14 
     name lowerneck
     direction -0.0561561 0.979832 0.19177   
     length 1.64159   
     axis 0 0 0   XYZ
    dof rx ry rz
    limits (-20.0 45.0)
           (-30.0 30.0)
           (-30.0 30.0)
  end
  begin
     id 15 
     name upperneck
     direction 0.0827153 0.979385 -0.184293   
     length 1.68939   
     axis 0 0 0   XYZ
    dof rx ry rz
    limits (-20.0 45.0)
           (-30.0 30.0)
           (-30.0 30.0)
  end
  begin
     id 16
     name head
     direction 0.0278583 0.995936 -0.0856488  
     length 1.70207  
     axis 0 0 0   XYZ
    dof rx ry rz
    limits (-20.0 45.0)
           (-30.0 30.0)
           (-30.0 30.0)
  end
  begin
     id 17 
     name lclavicle
     direction 0.950993 0.301131 -0.0702275  
     length 3.41652  
     axis 0 0 0   XYZ
    dof ry rz
    limits (-20.0 10.0)
           (0.0 20.0)
  end
  begin
     id 18 
     name lhumerus
     direction 1 -4.48981e-011 -3.9662e-029   
     length 5.32955   
     axis 180 -30 -90   XYZ
    dof rx ry rz
    limits (-60.0 90.0)
           (-90.0 90.0)
           (-90.0 90.0)
  end
  begin
     id 19
     name lradius
     direction 1 -4.48925e-011 -9.0549e-027   
     length 3.69232   
     axis 180 -30 -90   XYZ
    dof rx
    limits (-10.0 170.0)
  end
  begin
     id 20
     name lwrist
     direction 1 -4.49007e-011 -1.49005e-026   
     length 1.84616   
     axis 9.0955e-015 90 90   XYZ
    dof ry
    limits (-180.0 0.0)
 end
  begin
     id 21 
     name lhand
     direction 1 -4.49016e-011 -2.98023e-026   
     length 0.536598   
     axis 1.90115e-014 90 90   XYZ
    dof rx rz
    limits (-90.0 90.0)
           (-45.0 45.0)
  end
  begin
     id 22 
     name lfingers
     direction 1 -4.48924e-011 -5.9578e-026   
     length 0.432619   
     axis 3.80223e-014 90 90   XYZ
    dof rx
    limits (0.0 90.0)
  end
  begin
     id 23
     name lthumb
     direction 0.707107 -6.34947e-011 0.707107   
     length 0.621157   
     axis -90 45 -3.84942e-014   XYZ
    dof rx rz
    limits (-45.0 45.0)
           (-45.0 45.0)
  end
  begin
     id 24 
     name rclavicle
     direction -0.955495 0.276497 -0.102848   
     length 3.36357  
     axis 0 0 0   XYZ 
    dof ry rz
    limits (-10.0 20.0)
           (-20.0 0.0)
  end
  begin
     id 25 
     name rhumerus
     direction -1 -4.48961e-011 3.30983e-027  
     length 5.23431   
     axis 180 30 90   XYZ
    dof rx ry rz
    limits (-90.0 60.0)
           (-90.0 90.0)
           (-90.0 90.0)
  end
  begin
     id 26 
     name rradius
     direction -1 -4.48965e-011 -6.63263e-027   
     length 3.55301   
     axis 180 30 90   XYZ
    dof rx
    limits (-10.0 170.0)
  end
  begin
     id 27 
     name rwrist
     direction -1 -4.48942e-011 -1.48958e-026   
     length 1.77651   
     axis 9.0955e-015 -90 -90   XYZ
    dof ry
    limits (-180.0 0.0)
  end
  begin
     id 28
     name rhand
     direction -1 -4.48977e-011 -2.97966e-026   
     length 0.772522   
     axis 1.90115e-014 -90 -90   XYZ
    dof rx rz
    limits (-90.0 90.0)
           (-45.0 45.0)
  end
  begin
     id 29
     name rfingers
     direction -1 -4.49135e-011 -5.96389e-026   
     length 0.622827   
     axis 3.80223e-014 -90 -90   XYZ
    dof rx
    limits (0.0 90.0)
  end
  begin
     id 30
     name rthumb
     direction -0.707107 -6.34969e-011 0.707107   
     length 0.894259   
     axis -90 -45 3.84942e-014   XYZ
    dof rx rz
    limits (-45.0 45.0)
           (-45.0 45.0)
  end
:hierarchy
  begin
    root lhipjoint rhipjoint lowerback
    lhipjoint lfemur
    lfemur ltibia
    ltibia lfoot
    lfoot ltoes
    rhipjoint rfemur
    rfemur rtibia
    rtibia rfoot
    rfoot rtoes
    lowerback upperback
    upperback thorax
    thorax lowerneck lclavicle rclavicle
    lowerneck upperneck
    upperneck head
    lclavicle lhumerus
    lhumerus lradius
    lradius lwrist
    lwrist lhand lthumb
    lhand lfingers
    rclavicle rhumerus
    rhumerus rradius
    rradius rwrist
    rwrist rhand rthumb
    rhand rfingers
  end

#!OML:ASF F:\VICON\USERDATA\INSTALL\rory3\rory3.ASF
:FULLY-SPECIFIED
:DEGREES
479
root -12.614 17.8079 11.0601 -179.057 4.42216 176.403
lowerback 11.8531 -0.843297 -5.67262
upperback 0.264202 -1.7449 1.15053
thorax -6.17359 -0.639029 4.71511
lowerneck -16.7229 -8.24107 -11.394
upperneck 28.7553 -10.2083 9.80098
head 13.6928 -3.97813 4.1772
rclavicle 2.83268e-015 -1.59028e-014
rhumerus -34.1272 -12.7604 -79.8025
rradius 28.2825
rwrist 3.4837
rhand -15.8846 7.06595
rfingers 7.12502
rthumb 10.3115 -22.6613
lclavicle 2.83268e-015 -1.59028e-014
lhumerus -29.2203 0.847885 76.9873
lradius 38.9545
lwrist -2.82559
lhand -18.8459 24.3005
lfingers 7.12502
lthumb 7.45389 54.1492
rfemur -25.4169 -7.43075 21.7917
rtibia 31.5457
rfoot -5.48341 -10.2851
rtoes 17.3664
lfemur 18.5088 0.483189 -21.6936
ltibia -1.59028e-014
lfoot 0.0784014 20.106
ltoes -22.495
480
root -12.5662 17.8182 10.9609 -179.183 5.01316 176.333
lowerback 11.7785 -0.840648 -5.79064
upperback 0.255893 -1.75814 1.09868
thorax -6.13722 -0.644631 4.72673
lowerneck -16.49 -8.23129 -11.4575
upperneck 28.7255 -10.217 9.88824
head 13.6416 -3.98252 4.22658
rclavicle -7.40473e-015 0
rhumerus -34.2303 -13.2359 -79.6942
rradius 27.6837
rwrist 4.09465
rhand -16.1292 7.06971
rfingers 7.12502
rthumb 10.0755 -22.6691
lclavicle -7.40473e-015 0
lhumerus -29.4924 0.929367 77.0224
lradius 39.4325
lwrist -2.58595
lhand -18.8437 23.5612
lfingers 7.12502
lthumb 7.45606 53.4098
rfemur -24.9158 -7.17108 21.8712
rtibia 31.5045
rfoot -5.61282 -9.92148
rtoes 17.5159
lfemur 16.1123 0.672687 -21.6411
ltibia 5.71493
lfoot -1.84401 20.3869
ltoes -23.0473
481
root -12.517 17.8338 10.8615 -179.282 5.71778 176.334
lowerback 11.7033 -0.808812 -5.8346
upperback 0.25676 -1.72143 1.05061
thorax -6.09887 -0.627995 4.69206
lowerneck -16.4373 -8.2147 -11.4495
upperneck 28.8177 -10.2206 9.96155
head 13.6749 -3.97002 4.26041
rclavicle -2.56929e-014 3.57812e-015
rhumerus -34.3834 -13.532 -79.6966
rradius 27.341
rwrist 4.43778
rhand -16.266 6.90519
rfingers 7.12502
rthumb 9.94356 -22.84
lclavicle -2.56929e-014 3.57812e-015
lhumerus -29.699 0.875713 77.0804
lradius 39.7803
lwrist -2.10838
lhand -18.882 22.9177
lfingers 7.12502
lthumb 7.41909 52.7676
rfemur -24.3971 -6.88011 22.0493
rtibia 31.3647
rfoot -5.84268 -9.52189
rtoes 17.213
lfemur 15.038 0.957871 -21.4877
ltibia 8.72232
lfoot -2.44094 20.4411
ltoes -22.6924
482
root -12.469 17.8504 10.7648 -179.317 6.49535 176.423
lowerback 11.5512 -0.761679 -5.74371
upperback 0.292594 -1.64128 0.977165
thorax -5.98955 -0.597324 4.54377
lowerneck -16.6057 -8.22965 -11.3231
upperneck 29.0631 -10.2681 9.95246
head 13.8142 -3.96417 4.23363
rclavicle 1.88845e-014 0
rhumerus -34.4185 -13.9239 -79.7454
rradius 27.0267
rwrist 4.93487
rhand -16.1547 6.96687
rfingers 7.12502
rthumb 10.0509 -22.7731
lclavicle 1.88845e-014 0
lhumerus -29.8109 0.634154 77.0943
lradius 40.0396
lwrist -1.62256
lhand -18.9857 23.5059
lfingers 7.12502
lthumb 7.31894 53.3593
rfemur -23.9198 -6.728 22.3602
rtibia 31.1387
rfoot -6.22969 -8.98124
rtoes 16.6229
lfemur 14.067 1.31404 -21.2306
ltibia 11.3963
lfoot -2.35747 20.3433
ltoes -23.4898
483
root -12.4176 17.8627 10.6699 -179.346 7.19168 176.486
lowerback 11.3827 -0.731326 -5.73154
upperback 0.29398 -1.59295 0.949841
thorax -5.90034 -0.57854 4.495
lowerneck -16.5648 -8.24031 -11.3154
upperneck 29.1868 -10.2783 9.91395
head 13.8572 -3.96931 4.22091
rclavicle -2.88238e-015 -1.15295e-014
rhumerus -34.4244 -14.53 -79.6103
rradius 26.5509
rwrist 5.70887
rhand -16.0308 7.34743
rfingers 7.12502
rthumb 10.1704 -22.3867
lclavicle -2.88238e-015 -1.15295e-014
lhumerus -30.0318 0.529282 77.1746
lradius 40.3111
lwrist -1.41319
lhand -18.9723 24.7953
lfingers 7.12502
lthumb 7.33192 54.6483
rfemur -23.3857 -6.55167 22.6232
rtibia 30.8149
rfoot -6.59315 -8.55203
rtoes 16.7649
lfemur 13.111 1.74047 -20.9509
ltibia 14.027
lfoot -2.08723 19.9832
ltoes -24.1184
484
root -12.3674 17.8751 10.5722 -179.391 7.76806 176.504
lowerback 11.262 -0.745127 -5.73095
upperback 0.252422 -1.6103 0.9225
thorax -5.87551 -0.588973 4.46555
lowerneck -16.4963 -8.225 -11.2721
upperneck 29.3475 -10.2366 9.80018
head 13.8952 -3.95627 4.18333
rclavicle -4.00551e-014 6.75868e-015
rhumerus -34.5444 -15.0917 -79.4345
rradius 26.1472
rwrist 6.50733
rhand -16.0386 7.63445
rfingers 7.12502
rthumb 10.1629 -22.1001
lclavicle -4.00551e-014 6.75868e-015
lhumerus -30.3463 0.393925 77.2814
lradius 40.6095
lwrist -1.17497
lhand -18.6761 25.4377
lfingers 7.12502
lthumb 7.61778 55.2805
rfemur -22.7721 -6.36572 22.7812
rtibia 30.429
rfoot -6.73337 -8.09468
rtoes 16.5796
lfemur 12.1376 2.08858 -20.7043
ltibia 16.634
lfoot -1.58982 19.4691
ltoes -24.9965
485
root -12.3151 17.8952 10.4734 -179.47 8.35957 176.646
lowerback 11.2265 -0.757636 -5.59225
upperback 0.228922 -1.61035 0.908849
thorax -5.88455 -0.593149 4.37184
lowerneck -16.558 -8.2761 -11.2613
upperneck 29.5752 -10.298 9.75522
head 14.0129 -3.97743 4.16
rclavicle 1.28216e-014 1.03368e-014
rhumerus -34.7197 -15.2163 -79.4806
rradius 25.993
rwrist 6.93891
rhand -16.1645 7.73194
rfingers 7.12502
rthumb 10.0415 -22.0085
lclavicle 1.28216e-014 1.03368e-014
lhumerus -30.5654 0.175127 77.4243
lradius 40.748
lwrist -0.830873
lhand -18.6702 25.2539
lfingers 7.12502
lthumb 7.62346 55.0965
rfemur -22.0654 -6.0643 23.064
rtibia 30.0007
rfoot -6.77476 -7.69031
rtoes 15.4149
lfemur 11.1984 2.52405 -20.2586
ltibia 19.1778
lfoot -0.90012 18.6968
ltoes -25.5251
486
root -12.2608 17.9127 10.3775 -179.576 8.95414 176.738
lowerback 11.2365 -0.754591 -5.52276
upperback 0.214805 -1.60121 0.876408
thorax -5.90898 -0.590319 4.29722
lowerneck -16.6043 -8.35008 -11.3218
upperneck 29.7389 -10.4169 9.84625
head 14.123 -4.01609 4.19194
rclavicle -3.58806e-014 1.98785e-015
rhumerus -34.9223 -14.9877 -79.7135
rradius 26.0909
rwrist 6.90045
rhand -16.1971 7.40819
rfingers 7.12502
rthumb 10.01 -22.3338
lclavicle -3.58806e-014 1.98785e-015
lhumerus -30.7228 -0.162872 77.6066
lradius 40.806
lwrist -0.541498
lhand -19.0655 25.094
lfingers 7.12502
lthumb 7.24194 54.9501
rfemur -21.3233 -5.79897 23.3108
rtibia 29.5396
rfoot -6.88746 -7.34387
rtoes 15.0322
lfemur 10.2507 3.02696 -19.8317
ltibia 21.7124
lfoot -0.0631302 17.8664
ltoes -24.9438
487
root -12.2068 17.9292 10.2845 -179.712 9.61408 176.779
lowerback 11.2183 -0.725802 -5.50504
upperback 0.23976 -1.56145 0.822185
thorax -5.87868 -0.573286 4.22243
lowerneck -16.5803 -8.36742 -11.3075
upperneck 29.8032 -10.48 9.93644
head 14.1607 -4.02739 4.21881
rclavicle 6.75868e-015 1.98785e-015
rhumerus -35.0331 -14.8817 -79.8965
rradius 26.1103
rwrist 6.91455
rhand -16.2413 7.68043
rfingers 7.12502
rthumb 9.96736 -22.0636
lclavicle 6.75868e-015 1.98785e-015
lhumerus -30.7876 -0.357441 77.686
lradius 40.7302
lwrist -0.802489
lhand -18.9333 24.9841
lfingers 7.12502
lthumb 7.36955 54.8358
rfemur -20.5589 -5.47275 23.497
rtibia 29.0247
rfoot -6.97936 -7.0394
rtoes 15.1399
lfemur 9.27466 3.40043 -19.5233
ltibia 24.2787
lfoot 0.957368 17.1678
ltoes -23.5681
488
root -12.1531 17.9464 10.1894 -179.805 10.3409 176.867
lowerback 11.1028 -0.693541 -5.37975
upperback 0.284176 -1.49809 0.752788
thorax -5.77849 -0.550657 4.06392
lowerneck -16.595 -8.3763 -11.3251
upperneck 29.8376 -10.5285 10.0467
head 14.1955 -4.03534 4.25974
rclavicle -1.38652e-014 -1.51076e-014
rhumerus -35.1194 -14.4934 -80.235
rradius 26.2655
rwrist 6.77356
rhand -16.2678 7.92736
rfingers 7.12502
rthumb 9.94179 -21.8179
lclavicle -1.38652e-014 -1.51076e-014
lhumerus -30.8512 -0.480149 77.7306
lradius 40.6556
lwrist -1.29832
lhand -18.6938 24.8063
lfingers 7.12502
lthumb 7.60071 54.6497
rfemur -19.8419 -5.15737 23.7472
rtibia 28.5259
rfoot -7.05144 -6.71411
rtoes 15.2924
lfemur 8.23088 3.76603 -19.1702
ltibia 26.8173
lfoot 2.05142 16.3716
ltoes -21.8408
489
root -12.0998 17.9596 10.0965 -179.86 11.087 177.099
lowerback 11.0387 -0.666639 -5.11195
upperback 0.301844 -1.42617 0.730429
thorax -5.73821 -0.524905 3.87554
lowerneck -16.6281 -8.3825 -11.3094
upperneck 29.8847 -10.5693 10.1143
head 14.2334 -4.04114 4.27874
rclavicle 5.29264e-015 -3.57812e-015
rhumerus -35.2569 -13.9916 -80.621
rradius 26.5902
rwrist 6.52341
rhand -16.2707 7.75738
rfingers 7.12502
rthumb 9.939 -21.988
lclavicle 5.29264e-015 -3.57812e-015
lhumerus -31.0428 -0.783481 77.835
lradius 40.7592
lwrist -1.43548
lhand -18.7523 24.7096
lfingers 7.12502
lthumb 7.54423 54.555
rfemur -19.1176 -4.77544 24.1485
rtibia 28.0412
rfoot -7.18833 -6.40846
rtoes 15.7658
lfemur 7.1762 4.12899 -18.6618
ltibia 29.3045
lfoot 3.42583 15.4175
ltoes -20.1135
490
root -12.0464 17.969 10.006 -179.97 11.8325 177.141
lowerback 11.0643 -0.624016 -5.07926
upperback 0.258329 -1.37235 0.690735
thorax -5.80606 -0.497786 3.8083
lowerneck -16.5316 -8.38908 -11.3185
upperneck 29.9122 -10.5877 10.1144
head 14.2276 -4.05234 4.28008
rclavicle -7.37988e-015 -5.56597e-015
rhumerus -35.4513 -13.6258 -80.8417
rradius 26.7889
rwrist 6.5708
rhand -16.214 7.91808
rfingers 7.12502
rthumb 9.99371 -21.8247
lclavicle -7.37988e-015 -5.56597e-015
lhumerus -31.3151 -1.09095 78.0168
lradius 40.7771
lwrist -1.52557
lhand -18.7778 24.4707
lfingers 7.12502
lthumb 7.51962 54.317
rfemur -18.3954 -4.48982 24.3463
rtibia 27.56
rfoot -7.20656 -5.96848
rtoes 15.8799
lfemur 6.14673 4.4307 -18.371
ltibia 31.7502
lfoot 4.78178 14.517
ltoes -17.9599
491
root -11.9963 17.978 9.91407 -180.142 12.5551 177.181
lowerback 11.1666 -0.587325 -4.98417
upperback 0.213986 -1.32274 0.63589
thorax -5.91906 -0.473049 3.69216
lowerneck -16.391 -8.41969 -11.4305
upperneck 29.9222 -10.6448 10.2186
head 14.2256 -4.07917 4.33565
rclavicle -2.58669e-014 -1.59028e-015
rhumerus -35.6234 -13.1592 -81.1034
rradius 27.0636
rwrist 6.48689
rhand -16.06 7.85872
rfingers 7.12502
rthumb 10.1423 -21.8768
lclavicle -2.58669e-014 -1.59028e-015
lhumerus -31.5623 -1.41712 78.2076
lradius 40.6609
lwrist -1.64672
lhand -18.8764 23.5474
lfingers 7.12502
lthumb 7.4245 53.3971
rfemur -17.622 -4.33834 24.5408
rtibia 27.0722
rfoot -7.14981 -5.47141
rtoes 15.4751
lfemur 5.1731 4.62512 -18.1015
ltibia 34.1639
lfoot 6.11624 13.7851
ltoes -14.3467
492
root -11.9489 17.9897 9.82579 -180.247 13.2658 177.316
lowerback 11.3027 -0.574464 -4.80267
upperback 0.172649 -1.29313 0.610013
thorax -6.0468 -0.459997 3.56147
lowerneck -16.3935 -8.41069 -11.388
upperneck 29.9545 -10.649 10.2053
head 14.2367 -4.07885 4.32302
rclavicle -8.22472e-015 -7.95139e-016
rhumerus -35.7443 -12.5968 -81.4415
rradius 27.46
rwrist 6.18268
rhand -15.9915 7.77242
rfingers 7.12502
rthumb 10.2084 -21.9599
lclavicle -8.22472e-015 -7.95139e-016
lhumerus -31.7908 -1.57964 78.3544
lradius 40.6069
lwrist -1.86745
lhand -19.0954 22.7207
lfingers 7.12502
lthumb 7.21307 52.5778
rfemur -16.9086 -4.192 24.8286
rtibia 26.5945
rfoot -7.23038 -5.08402
rtoes 15.246
lfemur 4.09131 4.67749 -17.7798
ltibia 36.5483
lfoot 8.62358 13.0096
ltoes -12.9481
